<svg xmlns="http://www.w3.org/2000/svg" viewBox="0 0 960 320" fill="none">
  <defs><linearGradient id="bg" x1="0" y1="0" x2="1" y2="1"><stop stop-color="#152E4D"/><stop offset="1" stop-color="#8A6933"/></linearGradient><linearGradient id="cab" x1="0" y1="0" x2="0" y2="1"><stop stop-color="#FFE56F"/><stop offset="1" stop-color="#E7A923"/></linearGradient></defs>
  <path fill="url(#bg)" d="M0 0h960v320H0z"/><circle cx="785" cy="85" r="158" fill="#FFD868" opacity=".18"/><path d="M0 246h960v74H0z" fill="#12253A" opacity=".67"/><path d="m0 269 960-35" stroke="#E8D6A4" stroke-width="6" opacity=".4"/>
  <g transform="translate(550 111)"><path d="m18 73 26-48c7-13 18-19 34-19h139c18 0 29 8 38 22l37 47 33 11c14 5 22 16 22 30v34H0v-35c0-19 7-31 18-42Z" fill="url(#cab)"/><path d="M62 21h62v50H35zm75 0h66c14 0 22 7 30 18l22 32H137z" fill="#34536C"/><path d="M128 0h60v24h-60z" fill="#FFF4C8"/><text x="158" y="18" text-anchor="middle" font-family="Arial,sans-serif" font-size="13" font-weight="700" fill="#4B4B3C">TAXI</text><path d="M0 99h346" stroke="#A97717" stroke-width="9"/><circle cx="75" cy="151" r="28" fill="#101E2D"/><circle cx="75" cy="151" r="13" fill="#C6D1D9"/><circle cx="280" cy="151" r="28" fill="#101E2D"/><circle cx="280" cy="151" r="13" fill="#C6D1D9"/></g>
</svg>
